# xmcd
# 
# Track frame offsets:
#     150
#     28415
#     48998
#     68705
#     93570
#     118968
#     141244
#     171393
#     199559
#     214888
#     241665
#     265602
#     282742
#     299091
#     322100
# 
# Disc length: 4527
# 
# Revision: 1
# Processed by: cddbd v1.5.2PL0 Copyright (c) Steve Scherf et al.
# Submitted via: fre:ac v1.0.17
# 
DISCID=f911ad0f
DTITLE=Robert Harris - Pompeii CD4
DYEAR=0
DGENRE=
TTITLE0=47 Hora Sexta
TTITLE1=48 Hora Sexta
TTITLE2=49 Hora Sexta
TTITLE3=50 Hora Sexta
TTITLE4=51 Hora Septa
TTITLE5=52 Hora Septa
TTITLE6=53 Hora Septa
TTITLE7=54 Hora Septa
TTITLE8=55 Hora Septa
TTITLE9=56 Hora Septa
TTITLE10=57 Hora Septa
TTITLE11=58 Hora Septa
TTITLE12=59 Hora Septa
TTITLE13=60 Hora Septa
TTITLE14=61 Hora Duodecima
EXTD=
EXTT0=
EXTT1=
EXTT2=
EXTT3=
EXTT4=
EXTT5=
EXTT6=
EXTT7=
EXTT8=
EXTT9=
EXTT10=
EXTT11=
EXTT12=
EXTT13=
EXTT14=
PLAYORDER=
